<?xml version="1.0" encoding="UTF-8"?>
<svg width="800" height="600" viewBox="0 0 800 600" fill="none" xmlns="http://www.w3.org/2000/svg">
    <!-- Background with gradient -->
    <defs>
        <linearGradient id="bgGradient" x1="0" y1="0" x2="800" y2="600" gradientUnits="userSpaceOnUse">
            <stop offset="0%" stop-color="#1a1a2e"/>
            <stop offset="100%" stop-color="#16213e"/>
        </linearGradient>
    </defs>
    <rect width="800" height="600" fill="url(#bgGradient)"/>
    
    <!-- Map-like grid with perspective -->
    <g stroke="#2a2a4a" stroke-width="1.5" opacity="0.6">
        <path d="M0,300 L800,200" stroke-dasharray="10,5"/>
        <path d="M0,400 L800,300" stroke-dasharray="10,5"/>
        <path d="M0,500 L800,400" stroke-dasharray="10,5"/>
        <path d="M100,0 L200,600" stroke-dasharray="10,5"/>
        <path d="M300,0 L400,600" stroke-dasharray="10,5"/>
        <path d="M500,0 L600,600" stroke-dasharray="10,5"/>
    </g>
    
    <!-- Main prediction visualization -->
    <g transform="translate(400,300)">
        <!-- Risk zones -->
        <circle r="150" fill="#e94560" fill-opacity="0.1"/>
        <circle r="120" fill="#e94560" fill-opacity="0.2"/>
        <circle r="90" fill="#e94560" fill-opacity="0.3"/>
        
        <!-- Data points with glow effect -->
        <g filter="url(#glow)">
            <circle cx="-100" cy="-100" r="6" fill="#0f3460"/>
            <circle cx="120" cy="-80" r="6" fill="#0f3460"/>
            <circle cx="-80" cy="120" r="6" fill="#0f3460"/>
            <circle cx="140" cy="100" r="6" fill="#0f3460"/>
        </g>
        
        <!-- Connection lines with gradient -->
        <defs>
            <linearGradient id="lineGradient" x1="0" y1="0" x2="1" y2="1">
                <stop offset="0%" stop-color="#e94560" stop-opacity="0.6"/>
                <stop offset="100%" stop-color="#0f3460" stop-opacity="0.3"/>
            </linearGradient>
        </defs>
        <g stroke="url(#lineGradient)" stroke-width="2">
            <line x1="-100" y1="-100" x2="0" y2="0"/>
            <line x1="120" y1="-80" x2="0" y2="0"/>
            <line x1="-80" y1="120" x2="0" y2="0"/>
            <line x1="140" y1="100" x2="0" y2="0"/>
        </g>
    </g>
    
    <!-- Safety and prediction elements -->
    <g transform="translate(400,150)">
        <!-- Safety shield -->
        <path d="M0,-40 L30,0 L0,40 L-30,0 Z" fill="#0f3460" opacity="0.8"/>
        <circle cx="0" cy="0" r="25" fill="#e94560" opacity="0.6"/>
        
        <!-- Prediction indicators -->
        <g transform="translate(120,-20)">
            <rect x="0" y="0" width="8" height="40" fill="#e94560" opacity="0.8"/>
            <rect x="20" y="0" width="8" height="60" fill="#e94560" opacity="0.6"/>
            <rect x="40" y="0" width="8" height="30" fill="#e94560" opacity="0.4"/>
        </g>
    </g>
    
    <!-- Title text -->
    <text x="400" y="500" text-anchor="middle" fill="#ffffff" font-family="Arial" font-size="24" font-weight="bold">
        Collision Prediction System
    </text>
    
    <!-- Glow filter definition -->
    <defs>
        <filter id="glow" x="-50%" y="-50%" width="200%" height="200%">
            <feGaussianBlur stdDeviation="2" result="blur"/>
            <feComposite in="SourceGraphic" in2="blur" operator="over"/>
        </filter>
    </defs>
</svg> 